<?xml version="1.0" encoding="UTF-8"?>
<svg version="1.1" xmlns="http://www.w3.org/2000/svg" width="348" height="270">
<path d="M0 0 C114.84 0 229.68 0 348 0 C348 89.1 348 178.2 348 270 C233.16 270 118.32 270 0 270 C0 180.9 0 91.8 0 0 Z " fill="#241F20" transform="translate(0,0)"/>
<path d="M0 0 C11.39980059 9.13706071 18.89163681 19.86401564 23.35839844 33.78369141 C23.72578125 34.86779297 24.09316406 35.95189453 24.47167969 37.06884766 C25.55593412 41.61125278 25.70095804 45.81858451 25.67089844 50.47119141 C25.66670898 51.35460205 25.66251953 52.2380127 25.65820312 53.14819336 C25.37024239 69.87901823 18.69614674 85.25127073 7.23339844 97.47119141 C-2.32702558 106.49868638 -13.19371664 111.2595636 -25.64160156 114.78369141 C-26.31449219 114.98607422 -26.98738281 115.18845703 -27.68066406 115.39697266 C-37.4177403 117.31723271 -51.59409915 116.30744261 -60.64160156 111.78369141 C-60.64160156 109.80369141 -60.64160156 107.82369141 -60.64160156 105.78369141 C-62.62160156 106.27869141 -62.62160156 106.27869141 -64.64160156 106.78369141 C-64.64160156 107.77369141 -64.64160156 108.76369141 -64.64160156 109.78369141 C-79.0318309 104.59080793 -89.65532449 92.23201332 -96.07788086 78.74951172 C-102.49807664 64.5241419 -104.62132217 47.76895185 -99.51660156 32.72119141 C-98.60956573 30.38809368 -97.6542516 28.07292685 -96.64160156 25.78369141 C-96.21878906 24.81173828 -95.79597656 23.83978516 -95.36035156 22.83837891 C-87.7352102 7.27777067 -74.13886689 -3.29951183 -58.14160156 -9.21630859 C-38.86581409 -15.70162027 -16.43488844 -12.17706934 0 0 Z " fill="#26201F" transform="translate(213.6416015625,83.21630859375)"/>
<path d="M0 0 C11.39980059 9.13706071 18.89163681 19.86401564 23.35839844 33.78369141 C23.72578125 34.86779297 24.09316406 35.95189453 24.47167969 37.06884766 C25.55593412 41.61125278 25.70095804 45.81858451 25.67089844 50.47119141 C25.66670898 51.35460205 25.66251953 52.2380127 25.65820312 53.14819336 C25.37024239 69.87901823 18.69614674 85.25127073 7.23339844 97.47119141 C-2.32702558 106.49868638 -13.19371664 111.2595636 -25.64160156 114.78369141 C-26.31449219 114.98607422 -26.98738281 115.18845703 -27.68066406 115.39697266 C-37.4177403 117.31723271 -51.59409915 116.30744261 -60.64160156 111.78369141 C-60.64160156 109.80369141 -60.64160156 107.82369141 -60.64160156 105.78369141 C-58.89130394 106.09452012 -57.14137462 106.4074232 -55.39160156 106.72119141 C-54.41707031 106.89521484 -53.44253906 107.06923828 -52.43847656 107.24853516 C-49.64160156 107.78369141 -49.64160156 107.78369141 -47.73535156 108.32666016 C-32.57653021 111.63558198 -17.04288693 106.7013642 -4.25488281 98.65478516 C7.43012547 90.28838909 14.29730442 78.32956281 17.94042969 64.58837891 C20.42652728 47.905967 18.43122976 31.63383447 8.35839844 17.78369141 C-1.15136642 5.45071511 -13.35911625 -1.69272904 -28.64550781 -4.83349609 C-45.58435641 -6.99778183 -60.59696924 -2.99876847 -74.39160156 7.03369141 C-84.95334663 15.7810318 -93.37459331 29.10066616 -94.87695312 42.95385742 C-95.97360341 61.74484165 -91.90458783 77.4098709 -79.39160156 91.84619141 C-76.82845382 94.72921441 -76.82845382 94.72921441 -73.64160156 96.78369141 C-73.64160156 74.01369141 -73.64160156 51.24369141 -73.64160156 27.78369141 C-69.98883102 29.61007668 -68.83534118 30.43112517 -66.39160156 33.40869141 C-63.79622237 36.46933296 -61.13906307 39.41763266 -58.32910156 42.28369141 C-57.67296875 42.95400391 -57.01683594 43.62431641 -56.34082031 44.31494141 C-54.76375387 46.00167033 -54.76375387 46.00167033 -52.64160156 45.78369141 C-51.17518402 44.33364897 -51.17518402 44.33364897 -49.64160156 42.40869141 C-45.26467357 37.25610529 -40.58084146 32.40121836 -35.64160156 27.78369141 C-35.31160156 27.78369141 -34.98160156 27.78369141 -34.64160156 27.78369141 C-34.50568135 29.67751305 -34.40919216 31.57418845 -34.32910156 33.47119141 C-34.27109375 34.52693359 -34.21308594 35.58267578 -34.15332031 36.67041016 C-34.81469157 40.88731329 -36.44468953 41.99489581 -39.64160156 44.78369141 C-40.83326843 45.9591566 -42.01635677 47.14335928 -43.19238281 48.33447266 C-46.67545573 51.81754557 -50.15852865 55.30061849 -53.64160156 58.78369141 C-54.72678267 57.86921295 -55.80964894 56.95198733 -56.89160156 56.03369141 C-57.49488281 55.52322266 -58.09816406 55.01275391 -58.71972656 54.48681641 C-60.7707773 52.6692186 -62.70375857 50.7215344 -64.64160156 48.78369141 C-64.97160156 68.58369141 -65.30160156 88.38369141 -65.64160156 108.78369141 C-81.73421843 102.34664466 -91.64228935 89.50794191 -98.41894531 73.91259766 C-103.89966664 59.88685393 -103.53894717 43.06755816 -98.11035156 29.10400391 C-97.62566406 28.00830078 -97.14097656 26.91259766 -96.64160156 25.78369141 C-96.21878906 24.81173828 -95.79597656 23.83978516 -95.36035156 22.83837891 C-87.7352102 7.27777067 -74.13886689 -3.29951183 -58.14160156 -9.21630859 C-38.86581409 -15.70162027 -16.43488844 -12.17706934 0 0 Z " fill="#DFC185" transform="translate(213.6416015625,83.21630859375)"/>
<path d="M0 0 C15.7841234 -0.92485098 15.7841234 -0.92485098 21.546875 3.59765625 C25.4247115 7.33997696 26.19990886 10.11689851 26.4375 15.4375 C26.29099091 20.38551157 25.44763149 23.27283083 22 27 C18.01590302 29.7509241 15.24343865 31.12812303 10.4296875 31.09765625 C9.62257324 31.09515869 8.81545898 31.09266113 7.98388672 31.09008789 C6.9579541 31.08098389 5.93202148 31.07187988 4.875 31.0625 C-0.013125 31.0315625 -0.013125 31.0315625 -5 31 C-5 37.6 -5 44.2 -5 51 C-7.97 51 -10.94 51 -14 51 C-14.14560195 47.27124612 -14.23417043 43.54322566 -14.3125 39.8125 C-14.35439453 38.75740234 -14.39628906 37.70230469 -14.43945312 36.61523438 C-14.51294936 31.9555729 -14.51355252 28.89871691 -12.171875 24.80078125 C-7.49115492 22.14337736 -3.23332901 22.33359938 2.0625 22.375 C4.03259511 22.375 6.00273979 22.36246836 7.97265625 22.3359375 C8.84156494 22.34157715 9.71047363 22.3472168 10.60571289 22.35302734 C13.54549136 21.91956964 14.89407946 21.07753886 17 19 C17.75 15.5 17.75 15.5 17 12 C13.33863702 9.13371402 10.26463604 8.56399099 5.6875 8.3125 C4.08455078 8.21388672 4.08455078 8.21388672 2.44921875 8.11328125 C1.23685547 8.05720703 1.23685547 8.05720703 0 8 C0 5.36 0 2.72 0 0 Z " fill="#E6C67A" transform="translate(185,110)"/>
<path d="M0 0 C0.33 0 0.66 0 1 0 C1 22.77 1 45.54 1 69 C1.99 69 2.98 69 4 69 C4.05534912 67.90123535 4.11069824 66.8024707 4.16772461 65.67041016 C4.37586679 61.55146695 4.58725097 57.43269517 4.79956055 53.31396484 C4.89059948 51.53926966 4.98078654 49.76453054 5.07006836 47.98974609 C5.98417191 29.84044984 5.98417191 29.84044984 7 21 C7.33 21 7.66 21 8 21 C8 40.8 8 60.6 8 81 C3.74114071 79.29645629 0.59368703 77.77693998 -3 75 C-3.75 72.8125 -3.75 72.8125 -4 71 C-4.66 70.67 -5.32 70.34 -6 70 C-7.6875 67.625 -7.6875 67.625 -9 65 C-8.67 64.01 -8.34 63.02 -8 62 C-4.04 65.465 -4.04 65.465 0 69 C0 46.23 0 23.46 0 0 Z " fill="#E7C98C" transform="translate(140,111)"/>
<path d="M0 0 C3 2 3 2 4 6 C10.93 6 17.86 6 25 6 C24.67 6.66 24.34 7.32 24 8 C17.4 8 10.8 8 4 8 C4 14.6 4 21.2 4 28 C1.03 28 -1.94 28 -5 28 C-5.14560195 24.27124612 -5.23417043 20.54322566 -5.3125 16.8125 C-5.35439453 15.75740234 -5.39628906 14.70230469 -5.43945312 13.61523438 C-5.5608921 5.91600315 -5.5608921 5.91600315 -3.86474609 3.14599609 C-2.48046875 1.76171875 -2.48046875 1.76171875 0 0 Z " fill="#D5B880" transform="translate(176,133)"/>
<path d="M0 0 C15.7841234 -0.92485098 15.7841234 -0.92485098 21.546875 3.59765625 C25.4247115 7.33997696 26.19990886 10.11689851 26.4375 15.4375 C26.29941259 20.5467341 25.51630563 23.28276262 22 27 C21.01 27 20.02 27 19 27 C19 26.34 19 25.68 19 25 C19.99 25 20.98 25 22 25 C22.22185844 22.73044814 22.42705515 20.45926245 22.625 18.1875 C22.74101562 16.92292969 22.85703125 15.65835938 22.9765625 14.35546875 C23.31441804 10.86442059 23.31441804 10.86442059 21 8 C20.67 8.99 20.34 9.98 20 11 C19.01 11.33 18.02 11.66 17 12 C16.24332031 11.53980469 15.48664063 11.07960938 14.70703125 10.60546875 C11.53531834 8.72440958 9.34420846 8.51341805 5.6875 8.3125 C4.08455078 8.21388672 4.08455078 8.21388672 2.44921875 8.11328125 C1.64097656 8.07589844 0.83273438 8.03851563 0 8 C0 5.36 0 2.72 0 0 Z " fill="#DBC38F" transform="translate(185,110)"/>
<path d="M0 0 C1.75128818 0.28382946 3.50100003 0.57739529 5.25 0.875 C6.71179688 1.11863281 6.71179688 1.11863281 8.203125 1.3671875 C11.97005874 2.21948256 14.26949405 3.26949405 17 6 C17 6.33 17 6.66 17 7 C21.95 7.33 26.9 7.66 32 8 C31.67 8.66 31.34 9.32 31 10 C21.06238093 10.41342945 9.14655936 10.57327968 0 6 C0 4.02 0 2.04 0 0 Z " fill="#D4B981" transform="translate(153,189)"/>
<path d="M0 0 C0 0.99 0 1.98 0 3 C7.92 3 15.84 3 24 3 C23.67 3.66 23.34 4.32 23 5 C22.34926514 5.01458252 21.69853027 5.02916504 21.02807617 5.04418945 C18.08061694 5.11864549 15.13429358 5.21531266 12.1875 5.3125 C11.16333984 5.33505859 10.13917969 5.35761719 9.08398438 5.38085938 C8.10107422 5.41630859 7.11816406 5.45175781 6.10546875 5.48828125 C5.19949951 5.51446533 4.29353027 5.54064941 3.36010742 5.56762695 C0.57184882 6.07843754 -0.09727853 7.00303441 -2 9 C-5.1875 8.6875 -5.1875 8.6875 -8 8 C-8.103125 8.639375 -8.20625 9.27875 -8.3125 9.9375 C-8.539375 10.618125 -8.76625 11.29875 -9 12 C-9.99 12.33 -10.98 12.66 -12 13 C-11.67 14.32 -11.34 15.64 -11 17 C-13.475 16.01 -13.475 16.01 -16 15 C-3.5 0 -3.5 0 0 0 Z " fill="#392918" transform="translate(175,128)"/>
<path d="M0 0 C-6.435 0.495 -6.435 0.495 -13 1 C-10.69 1.33 -8.38 1.66 -6 2 C-6 2.33 -6 2.66 -6 3 C-9.63 3 -13.26 3 -17 3 C-17 3.66 -17 4.32 -17 5 C-19.64 5.33 -22.28 5.66 -25 6 C-25 5.01 -25 4.02 -25 3 C-26.32 3.33 -27.64 3.66 -29 4 C-29.33 3.01 -29.66 2.02 -30 1 C-7.79508197 -5.19672131 -7.79508197 -5.19672131 0 0 Z " fill="#D4BB80" transform="translate(185,73)"/>
<path d="M0 0 C7.875 6.75 7.875 6.75 11 10 C10.67 10.99 10.34 11.98 10 13 C7.66475218 10.74259377 5.81294927 8.7194239 4 6 C2.87916835 11.48050779 2.78124255 16.85938118 2.68359375 22.4296875 C2.66281265 23.42001984 2.64203156 24.41035217 2.62062073 25.43069458 C2.5554968 28.57872918 2.49641371 31.72684367 2.4375 34.875 C2.39427941 37.0156331 2.35066401 39.15625826 2.30664062 41.296875 C2.19985372 46.53116676 2.09801988 51.76553712 2 57 C1.67 57 1.34 57 1 57 C0.67 38.19 0.34 19.38 0 0 Z " fill="#211811" transform="translate(148,131)"/>
<path d="M0 0 C0.66 0 1.32 0 2 0 C1.85811015 2.54194161 1.71160845 5.08347993 1.5625 7.625 C1.50352539 8.69427734 1.50352539 8.69427734 1.44335938 9.78515625 C1.19690319 13.91803682 0.76529947 17.92269024 0 22 C-0.99 21.67 -1.98 21.34 -3 21 C-3.66 22.32 -4.32 23.64 -5 25 C-5.59178725 16.56703164 -3.5313395 8.97016132 -1 1 C-0.67 0.67 -0.34 0.34 0 0 Z " fill="#E5C583" transform="translate(117,116)"/>
<path d="M0 0 C0.66 0 1.32 0 2 0 C2 9.57 2 19.14 2 29 C1.01 29 0.02 29 -1 29 C-1.02465881 25.03069011 -1.04284023 21.06140966 -1.05493164 17.09204102 C-1.05997057 15.74079614 -1.06680177 14.38955674 -1.07543945 13.03833008 C-1.08752419 11.09979566 -1.09269828 9.161222 -1.09765625 7.22265625 C-1.10289307 6.05484619 -1.10812988 4.88703613 -1.11352539 3.68383789 C-1 1 -1 1 0 0 Z " fill="#E0C677" transform="translate(142,151)"/>
<path d="M0 0 C0.33 0 0.66 0 1 0 C0.98839844 0.77085937 0.97679687 1.54171875 0.96484375 2.3359375 C0.95582031 3.33882812 0.94679687 4.34171875 0.9375 5.375 C0.92589844 6.37273437 0.91429687 7.37046875 0.90234375 8.3984375 C0.81993398 10.98432453 0.81993398 10.98432453 2 13 C1.03380551 17.34787522 -0.0396355 20.63594943 -3 24 C-5.475 23.01 -5.475 23.01 -8 22 C-7.59007812 21.0821875 -7.18015625 20.164375 -6.7578125 19.21875 C-3.97519574 12.90930828 -1.35893316 6.79466579 0 0 Z " fill="#D7C086" transform="translate(232,145)"/>
<path d="M0 0 C2.125 0.375 2.125 0.375 4 1 C4 1.66 4 2.32 4 3 C7.3 3.66 10.6 4.32 14 5 C14.33 4.34 14.66 3.68 15 3 C16.32 3.99 17.64 4.98 19 6 C17.68 7.32 16.36 8.64 15 10 C13.98679688 9.65066406 12.97359375 9.30132812 11.9296875 8.94140625 C10.57820771 8.48152771 9.22664053 8.02190591 7.875 7.5625 C7.20984375 7.33240234 6.5446875 7.10230469 5.859375 6.86523438 C1.92134847 5.53325481 -1.86205422 4.56074966 -6 4 C-5.38125 3.71125 -4.7625 3.4225 -4.125 3.125 C-1.86674235 2.06279958 -1.86674235 2.06279958 0 0 Z " fill="#D7C184" transform="translate(188,74)"/>
<path d="M0 0 C4.95 0 9.9 0 15 0 C15 0.99 15 1.98 15 3 C15.99 4.485 15.99 4.485 17 6 C11.72 5.67 6.44 5.34 1 5 C0.67 3.35 0.34 1.7 0 0 Z " fill="#E4C67E" transform="translate(186,112)"/>
<path d="M0 0 C0.66 0 1.32 0 2 0 C2 23.43 2 46.86 2 71 C1.67 71 1.34 71 1 71 C1 48.89 1 26.78 1 4 C0.34 4 -0.32 4 -1 4 C-0.67 2.68 -0.34 1.36 0 0 Z " fill="#1B0E09" transform="translate(137,108)"/>
<path d="M0 0 C2 2 2 2 2.4375 4.8125 C2.32202977 10.84261218 -0.69808188 16.53294447 -3 22 C-4 19 -4 19 -3 16 C-3.32814025 14.66537913 -3.66202498 13.33216432 -4 12 C-3.87890625 9.640625 -3.87890625 9.640625 -3.5625 7.25 C-3.46066406 6.45078125 -3.35882813 5.6515625 -3.25390625 4.828125 C-3.17011719 4.22484375 -3.08632812 3.6215625 -3 3 C-2.34 3 -1.68 3 -1 3 C-0.67 2.01 -0.34 1.02 0 0 Z " fill="#E7C68D" transform="translate(236,141)"/>
<path d="M0 0 C1.22203125 -0.01417969 2.4440625 -0.02835937 3.703125 -0.04296875 C6.75 0.1875 6.75 0.1875 8.75 2.1875 C7.67621094 2.23648438 6.60242188 2.28546875 5.49609375 2.3359375 C4.05987358 2.41103398 2.62367681 2.48657876 1.1875 2.5625 C0.48302734 2.5934375 -0.22144531 2.624375 -0.94726562 2.65625 C-8.65149197 2.90939832 -8.65149197 2.90939832 -15.25 6.1875 C-17.58297433 6.22842937 -19.91705225 6.22991723 -22.25 6.1875 C-22.25 5.5275 -22.25 4.8675 -22.25 4.1875 C-20.87708132 3.70240207 -19.50153297 3.22474487 -18.125 2.75 C-17.35929688 2.48316406 -16.59359375 2.21632813 -15.8046875 1.94140625 C-10.54021235 0.3878226 -5.47360165 0.0291149 0 0 Z " fill="#3F2818" transform="translate(175.25,76.8125)"/>
<path d="M0 0 C3 0 3 0 4.6875 1.375 C6 3 6 3 6 5 C6.66 5 7.32 5 8 5 C8 5.66 8 6.32 8 7 C8.99 7.33 9.98 7.66 11 8 C11 8.66 11 9.32 11 10 C11.598125 10.268125 12.19625 10.53625 12.8125 10.8125 C14.97224808 11.98493467 16.35790256 13.19369282 18 15 C17.67 15.66 17.34 16.32 17 17 C14.10147635 15.68692628 12.01722783 14.27315362 9.765625 12.03125 C8.90517578 11.17466797 8.90517578 11.17466797 8.02734375 10.30078125 C7.44082031 9.70652344 6.85429687 9.11226562 6.25 8.5 C5.64800781 7.90574219 5.04601562 7.31148438 4.42578125 6.69921875 C3.85730469 6.12816406 3.28882813 5.55710937 2.703125 4.96875 C2.18395508 4.44732422 1.66478516 3.92589844 1.12988281 3.38867188 C0 2 0 2 0 0 Z " fill="#402A1B" transform="translate(144,113)"/>
<path d="M0 0 C0 0.66 0 1.32 0 2 C5.28 2 10.56 2 16 2 C16 1.34 16 0.68 16 0 C17.65 0 19.3 0 21 0 C21.33 0.66 21.66 1.32 22 2 C17.27654477 3.8598605 13.02240658 4.30664368 8 4.25 C6.97132813 4.26160156 6.97132813 4.26160156 5.921875 4.2734375 C1.57469165 4.2568452 -1.96113993 3.59030115 -6 2 C-2.25 0 -2.25 0 0 0 Z " fill="#352C16" transform="translate(168,189)"/>
<path d="M0 0 C0.97591583 3.38317487 0.85856655 5.5657338 0 9 C-2.97 8.505 -2.97 8.505 -6 8 C-6.103125 8.639375 -6.20625 9.27875 -6.3125 9.9375 C-6.539375 10.618125 -6.76625 11.29875 -7 12 C-7.99 12.33 -8.98 12.66 -10 13 C-9.67 14.32 -9.34 15.64 -9 17 C-11.475 16.01 -11.475 16.01 -14 15 C-9.59156563 9.70987876 -4.92440206 4.81191572 0 0 Z " fill="#3D2C22" transform="translate(173,128)"/>
<path d="M0 0 C0.66 0 1.32 0 2 0 C1.814375 1.0725 1.62875 2.145 1.4375 3.25 C1.0695432 6.40391546 0.95534657 8.09818492 2 11 C-5.52567908 13.50855969 -15.09305888 12 -23 12 C-23 11.67 -23 11.34 -23 11 C-17.06 11 -11.12 11 -5 11 C-5 10.34 -5 9.68 -5 9 C-4.360625 8.5875 -3.72125 8.175 -3.0625 7.75 C-0.29641768 5.40302106 -0.31288108 3.51991219 0 0 Z " fill="#DABD83" transform="translate(203,123)"/>
<path d="M0 0 C1 2 1 2 0.25 4.5625 C-1 7 -1 7 -4 8 C-4.33 9.65 -4.66 11.3 -5 13 C-5.66 13 -6.32 13 -7 13 C-7.185625 14.299375 -7.185625 14.299375 -7.375 15.625 C-7.98058121 18.89513853 -8.88306035 21.87256899 -10 25 C-10.66 25 -11.32 25 -12 25 C-10.64364307 16.10832678 -6.94178504 6.07140832 0 0 Z " fill="#302812" transform="translate(131,98)"/>
<path d="M0 0 C6.93 0 13.86 0 21 0 C21 0.99 21 1.98 21 3 C16.05 3 11.1 3 6 3 C6 3.99 6 4.98 6 6 C5.01 6 4.02 6 3 6 C3 5.01 3 4.02 3 3 C2.01 2.67 1.02 2.34 0 2 C0 1.34 0 0.68 0 0 Z " fill="#ECD094" transform="translate(177,133)"/>
<path d="M0 0 C2.31 0.33 4.62 0.66 7 1 C6.67 1.99 6.34 2.98 6 4 C7.65 4 9.3 4 11 4 C9.02 4.99 9.02 4.99 7 6 C7 6.99 7 7.98 7 9 C6.01 9.33 5.02 9.66 4 10 C1.80902348 6.6659053 0.56545837 3.95820859 0 0 Z " fill="#E7C47A" transform="translate(154,129)"/>
<path d="M0 0 C0.66 0.99 1.32 1.98 2 3 C-1.3 5.97 -4.6 8.94 -8 12 C-8.66 11.67 -9.32 11.34 -10 11 C-10 9.68 -10 8.36 -10 7 C-9.01 7 -8.02 7 -7 7 C-7 5.68 -7 4.36 -7 3 C-6.01 3.33 -5.02 3.66 -4 4 C-3.67 3.34 -3.34 2.68 -3 2 C-2.34 2 -1.68 2 -1 2 C-0.67 1.34 -0.34 0.68 0 0 Z " fill="#E5CA8F" transform="translate(140,85)"/>
<path d="M0 0 C0 3.44826814 -0.73374286 5.8010346 -2 9 C-2.53625 9.515625 -3.0725 10.03125 -3.625 10.5625 C-5.28728826 11.99373595 -5.28728826 11.99373595 -5.1875 14.6875 C-5.125625 15.450625 -5.06375 16.21375 -5 17 C-5.66 17 -6.32 17 -7 17 C-7.12375 16.030625 -7.2475 15.06125 -7.375 14.0625 C-7.58125 13.051875 -7.7875 12.04125 -8 11 C-8.66 10.67 -9.32 10.34 -10 10 C-6.7 6.7 -3.4 3.4 0 0 Z " fill="#D9BE7E" transform="translate(178,111)"/>
<path d="M0 0 C3.80625387 3.22067635 7.54081536 6.40244797 11 10 C10.67 10.99 10.34 11.98 10 13 C7.66475218 10.74259377 5.81294927 8.7194239 4 6 C3.01 5.67 2.02 5.34 1 5 C1 6.65 1 8.3 1 10 C0.67 10 0.34 10 0 10 C0 6.7 0 3.4 0 0 Z " fill="#37220C" transform="translate(148,131)"/>
<path d="M0 0 C0.33 0.66 0.66 1.32 1 2 C1.99 2.33 2.98 2.66 4 3 C4.99 4.485 4.99 4.485 6 6 C6.66 6 7.32 6 8 6 C8 5.01 8 4.02 8 3 C9.32 3.66 10.64 4.32 12 5 C10.02 6.65 8.04 8.3 6 10 C4.98808455 9.09650406 3.99081074 8.17659153 3 7.25 C2.1646875 6.48429688 2.1646875 6.48429688 1.3125 5.703125 C0 4 0 4 0 0 Z " fill="#E7CC95" transform="translate(153,132)"/>
<path d="M0 0 C5.94 0 11.88 0 18 0 C18 0.33 18 0.66 18 1 C12.555 1.495 12.555 1.495 7 2 C9.97 2.33 12.94 2.66 16 3 C16 3.33 16 3.66 16 4 C14.08458862 4.10841951 12.16740227 4.18578079 10.25 4.25 C8.64898437 4.31960937 8.64898437 4.31960937 7.015625 4.390625 C4 4 4 4 0 0 Z " fill="#E8CB8B" transform="translate(166,193)"/>
<path d="M0 0 C0.33 0 0.66 0 1 0 C2.83717315 7.41430591 3.23576736 14.37685526 3 22 C0.19805534 16.7697033 -0.11756167 12.69666048 -0.0625 6.75 C-0.05347656 5.48671875 -0.04445313 4.2234375 -0.03515625 2.921875 C-0.02355469 1.95765625 -0.01195313 0.9934375 0 0 Z " fill="#271B0D" transform="translate(118,130)"/>
<path d="M0 0 C-0.59927826 3.35595828 -1.84622436 5.37801226 -4 8 C-5.32 7.34 -6.64 6.68 -8 6 C-7.8125 4.125 -7.8125 4.125 -7 2 C-4.55683729 0.74709605 -2.75474605 0 0 0 Z " fill="#E1C589" transform="translate(130,97)"/>
<path d="M0 0 C2.125 0.375 2.125 0.375 4 1 C4 1.66 4 2.32 4 3 C5.32 3.33 6.64 3.66 8 4 C7.67 4.99 7.34 5.98 7 7 C2.71 6.01 -1.58 5.02 -6 4 C-4.68 3.34 -3.36 2.68 -2 2 C-1.34 1.34 -0.68 0.68 0 0 Z " fill="#CFB683" transform="translate(188,74)"/>
<path d="M0 0 C2 3 2 3 3 6 C-1.75 7.125 -1.75 7.125 -4 6 C-4.33 6.99 -4.66 7.98 -5 9 C-5.33 8.34 -5.66 7.68 -6 7 C-6.66 6.67 -7.32 6.34 -8 6 C-5.36 4.02 -2.72 2.04 0 0 Z " fill="#D2BE82" transform="translate(141,81)"/>
<path d="M0 0 C0.99 0.33 1.98 0.66 3 1 C1.74381926 4.76854223 0.33985294 5.07958456 -3 7 C-3.33 7.66 -3.66 8.32 -4 9 C-4.66 9 -5.32 9 -6 9 C-6 9.99 -6 10.98 -6 12 C-6.99 12 -7.98 12 -9 12 C-7.55575365 8.76138697 -5.74227753 6.38030837 -3.375 3.75 C-2.74335938 3.04359375 -2.11171875 2.3371875 -1.4609375 1.609375 C-0.97882813 1.07828125 -0.49671875 0.5471875 0 0 Z " fill="#2B1E0C" transform="translate(227,172)"/>
<path d="M0 0 C1.32 0.99 2.64 1.98 4 3 C4.99 2.01 5.98 1.02 7 0 C7 3.3 7 6.6 7 10 C1.21538462 5.69230769 1.21538462 5.69230769 0.125 2.1875 C0.08375 1.465625 0.0425 0.74375 0 0 Z " fill="#392418" transform="translate(131,169)"/>
<path d="M0 0 C-2.28877281 2.28877281 -3.95532166 3.90978598 -7.26171875 4.1953125 C-8.46248047 4.16050781 -8.46248047 4.16050781 -9.6875 4.125 C-10.89986328 4.09792969 -10.89986328 4.09792969 -12.13671875 4.0703125 C-13.05904297 4.03550781 -13.05904297 4.03550781 -14 4 C-14 3.34 -14 2.68 -14 2 C-12.23225581 1.46877637 -10.46065917 0.95035927 -8.6875 0.4375 C-7.70136719 0.14746094 -6.71523437 -0.14257812 -5.69921875 -0.44140625 C-3 -1 -3 -1 0 0 Z " fill="#D9BE8C" transform="translate(198,190)"/>
<path d="M0 0 C1 2 2 4 3 6 C-0.465 7.485 -0.465 7.485 -4 9 C-4.33 7.68 -4.66 6.36 -5 5 C-4.34 5 -3.68 5 -3 5 C-2.87625 4.360625 -2.7525 3.72125 -2.625 3.0625 C-2.41875 2.381875 -2.2125 1.70125 -2 1 C-1.34 0.67 -0.68 0.34 0 0 Z " fill="#DDBD86" transform="translate(204,185)"/>
<path d="M0 0 C1 3 1 3 1 7 C1.66 7.33 2.32 7.66 3 8 C1.35 9.32 -0.3 10.64 -2 12 C-1.34 10.35 -0.68 8.7 0 7 C-0.66 7 -1.32 7 -2 7 C-2 6.01 -2 5.02 -2 4 C-2.66 4 -3.32 4 -4 4 C-3.67 3.01 -3.34 2.02 -3 1 C-2.01 0.67 -1.02 0.34 0 0 Z " fill="#E6C58D" transform="translate(170,121)"/>
<path d="M0 0 C4.13621084 3.3810038 7.81316569 6.66590534 11 11 C10.01 11.33 9.02 11.66 8 12 C6 10 6 10 5.125 7.9375 C4.1813345 5.79012093 4.1813345 5.79012093 1.9375 5.4375 C1.298125 5.293125 0.65875 5.14875 0 5 C-0.33 4.01 -0.66 3.02 -1 2 C-0.67 1.34 -0.34 0.68 0 0 Z " fill="#E7C894" transform="translate(143,114)"/>
<path d="M0 0 C1.32 0.33 2.64 0.66 4 1 C3.375 2.875 3.375 2.875 2 5 C-1.125 6.25 -1.125 6.25 -4 7 C-4.33 5.35 -4.66 3.7 -5 2 C-4.01 2 -3.02 2 -2 2 C-1.67 2.33 -1.34 2.66 -1 3 C-0.67 2.01 -0.34 1.02 0 0 Z " fill="#E5C794" transform="translate(210,183)"/>
<path d="M0 0 C2.475 0.99 2.475 0.99 5 2 C5 2.66 5 3.32 5 4 C1.5980513 6.09350689 -1.05272412 6.17942163 -5 6 C-3.35 4.02 -1.7 2.04 0 0 Z " fill="#E7C98B" transform="translate(216,176)"/>
<path d="M0 0 C3.96189783 4.23513217 5.43181728 8.547001 7 14 C6.01 14 5.02 14 4 14 C3.34 11.03 2.68 8.06 2 5 C1.34 5 0.68 5 0 5 C0 3.35 0 1.7 0 0 Z " fill="#3B2714" transform="translate(224,104)"/>
<path d="M0 0 C0.66 0 1.32 0 2 0 C3.20568053 4.67201205 3.09382426 9.21496292 3 14 C2.34 14 1.68 14 1 14 C0.67 9.38 0.34 4.76 0 0 Z " fill="#2C1B0E" transform="translate(238,118)"/>
<path d="M0 0 C0.99 0 1.98 0 3 0 C4.10844919 3.32534757 3.84454356 5.62182575 3 9 C2.67 8.34 2.34 7.68 2 7 C1.34 7 0.68 7 0 7 C-0.33 7.66 -0.66 8.32 -1 9 C-0.67 6.03 -0.34 3.06 0 0 Z " fill="#E8C28B" transform="translate(234,119)"/>
<path d="M0 0 C2.475 0.495 2.475 0.495 5 1 C5 1.99 5 2.98 5 4 C5.3062434 5.33981486 5.63451555 6.67511887 6 8 C4.35 7.67 2.7 7.34 1 7 C0.67 4.69 0.34 2.38 0 0 Z " fill="#D4BF7B" transform="translate(220,93)"/>
<path d="M0 0 C1.64826111 2.96687001 2.44271087 5.65626525 3 9 C1.68 9.99 0.36 10.98 -1 12 C-1.66 11.67 -2.32 11.34 -3 11 C-1.125 7.125 -1.125 7.125 0 6 C-0.66 5.67 -1.32 5.34 -2 5 C-2 4.34 -2 3.68 -2 3 C-1.34 3 -0.68 3 0 3 C0 2.01 0 1.02 0 0 Z " fill="#CDB27A" transform="translate(119,148)"/>
<path d="M0 0 C1.98 0.66 3.96 1.32 6 2 C5.6875 3.9375 5.6875 3.9375 5 6 C4.01 6.33 3.02 6.66 2 7 C-0.6875 5.0625 -0.6875 5.0625 -3 3 C-1.68 2.67 -0.36 2.34 1 2 C0.67 1.34 0.34 0.68 0 0 Z " fill="#D6BC80" transform="translate(200,115)"/>
<path d="M0 0 C3 0 3 0 4.6875 1.375 C6 3 6 3 6 5 C6.66 5 7.32 5 8 5 C8.33 5.99 8.66 6.98 9 8 C6 8 6 8 4.39453125 6.7578125 C3.87246094 6.21898438 3.35039062 5.68015625 2.8125 5.125 C2.28269531 4.59132813 1.75289062 4.05765625 1.20703125 3.5078125 C0 2 0 2 0 0 Z " fill="#402C1E" transform="translate(144,113)"/>
<path d="M0 0 C0 3 0 3 -1.6875 5.6875 C-4 8 -4 8 -6.75 8.3125 C-7.86375 8.1578125 -7.86375 8.1578125 -9 8 C-9 7.34 -9 6.68 -9 6 C-8.071875 5.566875 -7.14375 5.13375 -6.1875 4.6875 C-3.52815927 3.27961373 -1.91894095 2.23876444 0 0 Z " fill="#332213" transform="translate(209,134)"/>
<path d="M0 0 C3.58790575 0.29899215 4.78166776 0.76986601 7.3125 3.4375 C9 6 9 6 9 8 C5.56247993 6.4722133 2.81046312 4.49818944 0 2 C0 1.34 0 0.68 0 0 Z " fill="#241D09" transform="translate(212,81)"/>
<path d="M0 0 C1.65 0.33 3.3 0.66 5 1 C2.77124444 3.22875556 0.57585768 5.17805188 -2 7 C-2.99 6.67 -3.98 6.34 -5 6 C-4.54625 5.566875 -4.0925 5.13375 -3.625 4.6875 C-1.79975666 2.89201658 -1.79975666 2.89201658 0 0 Z " fill="#231B12" transform="translate(167,136)"/>
<path d="M0 0 C0.66 1.32 1.32 2.64 2 4 C0 6 0 6 -2.625 6.125 C-3.40875 6.08375 -4.1925 6.0425 -5 6 C-3.63016497 2.83884224 -3.0109362 2.0072908 0 0 Z " fill="#352B16" transform="translate(141,88)"/>
<path d="M0 0 C0.66 0 1.32 0 2 0 C3.38232443 1.62626404 4.71937515 3.2925002 6 5 C4.02 5.99 4.02 5.99 2 7 C0.68 5.68 -0.64 4.36 -2 3 C-1.34 2.34 -0.68 1.68 0 1 C0 0.67 0 0.34 0 0 Z " fill="#E9C68B" transform="translate(205,80)"/>
<path d="M0 0 C1.65 1.65 3.3 3.3 5 5 C4.01 6.98 3.02 8.96 2 11 C1.855625 10.38125 1.71125 9.7625 1.5625 9.125 C1.06847775 6.96741678 1.06847775 6.96741678 0 5 C-0.66 4.67 -1.32 4.34 -2 4 C-1.34 2.68 -0.68 1.36 0 0 Z " fill="#D1BC84" transform="translate(121,101)"/>
<path d="M0 0 C2.31 0.66 4.62 1.32 7 2 C7 2.66 7 3.32 7 4 C6.34 4 5.68 4 5 4 C4.67 4.66 4.34 5.32 4 6 C2.68 5.34 1.36 4.68 0 4 C0 2.68 0 1.36 0 0 Z " fill="#E8C685" transform="translate(212,86)"/>
<path d="M0 0 C0.66 0.66 1.32 1.32 2 2 C-0.97 4.97 -3.94 7.94 -7 11 C-7 7.06830895 -5.60580385 5.83572772 -3 3 C-2.34 3 -1.68 3 -1 3 C-0.67 2.01 -0.34 1.02 0 0 Z " fill="#2A1B06" transform="translate(133,84)"/>
<path d="M0 0 C1.875 0.1875 1.875 0.1875 4 1 C5.25 3.5625 5.25 3.5625 6 6 C4.35 6.33 2.7 6.66 1 7 C0.67 4.69 0.34 2.38 0 0 Z " fill="#E4C98B" transform="translate(123,165)"/>
<path d="M0 0 C0.99 0 1.98 0 3 0 C3.33 2.31 3.66 4.62 4 7 C3.01 7 2.02 7 1 7 C1 6.34 1 5.68 1 5 C0.01 4.67 -0.98 4.34 -2 4 C-1 1 -1 1 0 0 Z " fill="#E5C682" transform="translate(119,157)"/>
<path d="M0 0 C1 2 1 2 0.3125 4.5 C-1.15567038 7.29651501 -2.09303901 7.93411431 -5 9 C-4.42647107 5.12867972 -2.51295648 2.91827204 0 0 Z " fill="#322019" transform="translate(131,98)"/>
<path d="M0 0 C0.66 0.99 1.32 1.98 2 3 C1.34 3.66 0.68 4.32 0 5 C-1.32 5 -2.64 5 -4 5 C-4.33 5.66 -4.66 6.32 -5 7 C-5.33 6.01 -5.66 5.02 -6 4 C-4.02 2.68 -2.04 1.36 0 0 Z " fill="#342417" transform="translate(213,186)"/>
<path d="M0 0 C2.9375 0.375 2.9375 0.375 6 1 C6.33 1.66 6.66 2.32 7 3 C5.68 2.67 4.36 2.34 3 2 C2.67 3.32 2.34 4.64 2 6 C1.34 6 0.68 6 0 6 C0 4.02 0 2.04 0 0 Z " fill="#DAC69C" transform="translate(153,189)"/>
<path d="M0 0 C1.98 0 3.96 0 6 0 C5.67 1.65 5.34 3.3 5 5 C2.5 3.625 2.5 3.625 0 2 C0 1.34 0 0.68 0 0 Z " fill="#DCBF8A" transform="translate(137,184)"/>
<path d="M0 0 C0.99 0 1.98 0 3 0 C1.83857315 4.35535069 0.92300495 6.64619703 -3 9 C-3.33 8.01 -3.66 7.02 -4 6 C-3.01 6 -2.02 6 -1 6 C-0.67 4.02 -0.34 2.04 0 0 Z " fill="#D5BE89" transform="translate(208,129)"/>
<path d="M0 0 C1.65 0 3.3 0 5 0 C4.67 0.66 4.34 1.32 4 2 C5.65 2.33 7.3 2.66 9 3 C9 3.33 9 3.66 9 4 C5.7 4 2.4 4 -1 4 C-0.67 2.68 -0.34 1.36 0 0 Z " fill="#DCC376" transform="translate(188,113)"/>
<path d="M0 0 C0.33 1.32 0.66 2.64 1 4 C-1.66666667 4 -4.33333333 4 -7 4 C-3.375 0 -3.375 0 0 0 Z " fill="#221E10" transform="translate(208,191)"/>
<path d="M0 0 C2.4375 0.375 2.4375 0.375 5 1 C5.33 1.66 5.66 2.32 6 3 C5.34 3.66 4.68 4.32 4 5 C1.525 4.01 1.525 4.01 -1 3 C-0.67 2.01 -0.34 1.02 0 0 Z " fill="#D8BB7A" transform="translate(225,164)"/>
<path d="M0 0 C0.99 0.33 1.98 0.66 3 1 C3 1.99 3 2.98 3 4 C3.66 4 4.32 4 5 4 C4.34 5.32 3.68 6.64 3 8 C2.01 7.67 1.02 7.34 0 7 C0.66 5.68 1.32 4.36 2 3 C1.01 2.67 0.02 2.34 -1 2 C-0.67 1.34 -0.34 0.68 0 0 Z " fill="#DEBB73" transform="translate(165,124)"/>
<path d="M0 0 C0.99 0.99 1.98 1.98 3 3 C2.75 5.3125 2.75 5.3125 2 8 C1.66055205 9.99897128 1.32578384 11.99875639 1 14 C0.67 14 0.34 14 0 14 C0 9.38 0 4.76 0 0 Z " fill="#D6B97D" transform="translate(141,111)"/>
<path d="M0 0 C0.66 0 1.32 0 2 0 C2 0.66 2 1.32 2 2 C3.32 1.67 4.64 1.34 6 1 C6 1.99 6 2.98 6 4 C3.36 4.33 0.72 4.66 -2 5 C-2 4.34 -2 3.68 -2 3 C-1.34 3 -0.68 3 0 3 C0 2.01 0 1.02 0 0 Z " fill="#E6CB8B" transform="translate(154,75)"/>
<path d="M0 0 C1.65 0.33 3.3 0.66 5 1 C4.34 2.65 3.68 4.3 3 6 C1.68 4.68 0.36 3.36 -1 2 C-0.67 1.34 -0.34 0.68 0 0 Z " fill="#E2C790" transform="translate(224,167)"/>
<path d="M0 0 C0.33 0.66 0.66 1.32 1 2 C1.66 2 2.32 2 3 2 C1.92598892 4.91517292 1.22189824 6.77810176 -1 9 C-1.80967438 6.08517222 -2.21845993 4.53886783 -1.0625 1.6875 C-0.711875 1.130625 -0.36125 0.57375 0 0 Z " fill="#3B241D" transform="translate(233,161)"/>
<path d="M0 0 C4.13333333 6.2 4.13333333 6.2 3.625 9.25 C3.41875 9.8275 3.2125 10.405 3 11 C2.34 11 1.68 11 1 11 C0.67 7.37 0.34 3.74 0 0 Z " fill="#361E16" transform="translate(115,156)"/>
<path d="M0 0 C0.33 1.98 0.66 3.96 1 6 C0.34 6 -0.32 6 -1 6 C-1 5.01 -1 4.02 -1 3 C-2.32 3.33 -3.64 3.66 -5 4 C-5.33 3.01 -5.66 2.02 -6 1 C-3 0 -3 0 0 0 Z " fill="#CCB683" transform="translate(161,73)"/>
<path d="M0 0 C0.33 0.66 0.66 1.32 1 2 C1.99 2.33 2.98 2.66 4 3 C5.1875 6.0625 5.1875 6.0625 6 9 C1.3125 5.484375 1.3125 5.484375 0 4 C0 2.68 0 1.36 0 0 Z " fill="#E1C392" transform="translate(153,132)"/>
<path d="M0 0 C0 3.16880694 -0.2058242 4.43689172 -2 7 C-4.625 7.75 -4.625 7.75 -7 8 C-6.02133662 6.85373678 -5.04205413 5.70800212 -4.0625 4.5625 C-3.51722656 3.92441406 -2.97195312 3.28632812 -2.41015625 2.62890625 C-1.63204305 1.73008851 -0.84063472 0.84063472 0 0 Z " fill="#CDB38D" transform="translate(178,111)"/>
<path d="M0 0 C-0.33 0.66 -0.66 1.32 -1 2 C-3.31 2 -5.62 2 -8 2 C-8 1.34 -8 0.68 -8 0 C-4.71023192 -1.09658936 -3.28696233 -0.79953138 0 0 Z " fill="#361F10" transform="translate(161,81)"/>
<path d="M0 0 C0.66 0.33 1.32 0.66 2 1 C1.01 2.98 0.02 4.96 -1 7 C-1.66 6.67 -2.32 6.34 -3 6 C-2.67 4.68 -2.34 3.36 -2 2 C-1.34 2 -0.68 2 0 2 C0 1.34 0 0.68 0 0 Z " fill="#3D2319" transform="translate(227,157)"/>
<path d="M0 0 C0.66 0.33 1.32 0.66 2 1 C2 1.66 2 2.32 2 3 C2.99 3.33 3.98 3.66 5 4 C4.67 4.66 4.34 5.32 4 6 C2.68 5.34 1.36 4.68 0 4 C0 2.68 0 1.36 0 0 Z " fill="#332212" transform="translate(153,120)"/>
<path d="M0 0 C1.5 1.3125 1.5 1.3125 3 3 C3 3.99 3 4.98 3 6 C2.01 6 1.02 6 0 6 C-0.66 4.35 -1.32 2.7 -2 1 C-1.34 0.67 -0.68 0.34 0 0 Z " fill="#221D10" transform="translate(134,96)"/>
<path d="M0 0 C2.97 0.495 2.97 0.495 6 1 C6.33 1.99 6.66 2.98 7 4 C4.69 3.67 2.38 3.34 0 3 C0 2.01 0 1.02 0 0 Z " fill="#DAC590" transform="translate(195,75)"/>
</svg>
